<?xml version="1.0" encoding="UTF-8" standalone="no"?>
<svg
   xmlns:dc="http://purl.org/dc/elements/1.1/"
   xmlns:cc="http://creativecommons.org/ns#"
   xmlns:rdf="http://www.w3.org/1999/02/22-rdf-syntax-ns#"
   xmlns:svg="http://www.w3.org/2000/svg"
   xmlns="http://www.w3.org/2000/svg"
   xmlns:xlink="http://www.w3.org/1999/xlink"
   xmlns:sodipodi="http://sodipodi.sourceforge.net/DTD/sodipodi-0.dtd"
   xmlns:inkscape="http://www.inkscape.org/namespaces/inkscape"
   version="1.1"
   id="Layer_1"
   x="0px"
   y="0px"
   width="875px"
   height="1000px"
   viewBox="0 0 875 1000"
   enable-background="new 0 0 875 1000"
   xml:space="preserve"
   sodipodi:docname="Discord_Icon.svg"
   inkscape:version="1.0.2-2 (e86c870879, 2021-01-15)"><metadata
   id="metadata15"><rdf:RDF><cc:Work
       rdf:about=""><dc:format>image/svg+xml</dc:format><dc:type
         rdf:resource="http://purl.org/dc/dcmitype/StillImage" /></cc:Work></rdf:RDF></metadata><defs
   id="defs13"><linearGradient
     inkscape:collect="always"
     id="linearGradient901"><stop
       style="stop-color:#f7c16c;stop-opacity:1"
       offset="0"
       id="stop897" /><stop
       style="stop-color:#f4a82f;stop-opacity:1"
       offset="1"
       id="stop899" /></linearGradient><linearGradient
     inkscape:collect="always"
     id="linearGradient893"><stop
       style="stop-color:#ddab5b;stop-opacity:1"
       offset="0"
       id="stop889" /><stop
       style="stop-color:#f39c13;stop-opacity:1"
       offset="1"
       id="stop891" /></linearGradient><linearGradient
     inkscape:collect="always"
     xlink:href="#linearGradient893"
     id="linearGradient895"
     x1="164.58405"
     y1="238.89751"
     x2="875"
     y2="949.31348"
     gradientUnits="userSpaceOnUse" /><linearGradient
     inkscape:collect="always"
     xlink:href="#linearGradient901"
     id="linearGradient903"
     x1="0"
     y1="0"
     x2="653.13672"
     y2="653.13672"
     gradientUnits="userSpaceOnUse" /></defs><sodipodi:namedview
   pagecolor="#ffffff"
   bordercolor="#666666"
   borderopacity="1"
   objecttolerance="10"
   gridtolerance="10"
   guidetolerance="10"
   inkscape:pageopacity="0"
   inkscape:pageshadow="2"
   inkscape:window-width="1920"
   inkscape:window-height="1001"
   id="namedview11"
   showgrid="false"
   inkscape:snap-bbox="true"
   inkscape:object-paths="true"
   inkscape:snap-intersection-paths="true"
   inkscape:snap-smooth-nodes="true"
   inkscape:bbox-paths="true"
   inkscape:bbox-nodes="true"
   inkscape:zoom="0.53245141"
   inkscape:cx="-16.021176"
   inkscape:cy="405.38293"
   inkscape:window-x="-9"
   inkscape:window-y="-9"
   inkscape:window-maximized="1"
   inkscape:current-layer="g8" />
<g
   id="g8">
	
	
	<path
   style="opacity:1;fill:url(#linearGradient903);fill-opacity:1"
   d="M 772.6615,0 H 102.33856 C 45.8115,0 0,46.202 0,103.2105 v 676.03498 c 0,57.00854 45.8115,103.21051 102.33854,103.21051 h 567.1839 l -26.52497,-92.34497 63.88196,59.40795 60.302,56.0575 L 875,1000 V 779.24548 729.05402 103.2105 C 875,46.202 829.18799,0 772.6615,0 Z"
   id="path6" /><path
   id="rect840"
   style="opacity:1;fill:url(#linearGradient895);stroke-width:26.9605;paint-order:stroke fill markers;fill-opacity:1"
   d="M 875,1000 V 500.23637 L 660.26697,285.50351 c -45.70567,-26.38818 -95.85452,-44.44852 -147.271,-44.44852 l 24.53776,24.53772 -69.75993,75.59247 -102.28781,-102.28767 c -52.70304,0 -101.82175,25.48541 -148.47217,52.41904 l -52.42978,306.10614 285.03421,285.0333 h 219.90419 l -26.52497,-92.34497 z"
   sodipodi:nodetypes="ccccccccccccc" /><path
   id="path880"
   style="opacity:1;fill:#ffffff"
   d="m 360.32812,233.01367 c 0,0 -68.23884,-1.71527 -140.27734,52.49024 0,0 -71.95898,130.46517 -71.95898,291.38867 0,0 42.21728,72.85516 152.67773,76.24414 0,0 18.29915,-22.21515 33.37109,-41.32617 -63.5985,-18.81049 -87.6289,-58.76172 -87.6289,-58.76172 0,0 4.87497,3.4029 13.79297,8.52539 0.72299,0.44349 1.44223,0.82843 2.19922,1.25195 1.44101,0.82251 2.99768,1.66901 4.63867,2.56055 12.95251,7.15699 25.26434,12.82135 36.73633,17.21484 20.19049,8.16199 44.97146,16.20478 73.39648,21.50977 37.694,7.00848 81.75359,9.1709 129.60156,0.27539 23.43301,-4.32953 47.73462,-11.30249 72.68164,-21.66602 17.54346,-6.69397 37.01264,-16.12688 57.68164,-29.67187 0,0 -24.74236,41.10395 -90.42187,59.52539 14.94996,18.94904 32.78125,40.5625 32.78125,40.5625 110.45496,-3.38898 152.66601,-76.24414 152.66601,-76.24414 0,-160.9235 -71.99804,-291.38867 -71.99804,-291.38867 C 588.26862,231.2984 519.99414,233.01367 519.99414,233.01367 l -6.99805,8.04102 c 85.30799,25.8815 124.60547,63.55664 124.60547,63.55664 -52.005,-28.423 -103.18035,-42.65466 -150.67187,-48.01367 -36.25848,-4.07348 -70.39728,-2.98471 -101.13672,0.90429 -2.84256,0.36399 -5.59744,0.78989 -8.40039,1.19141 -17.50405,1.69199 -59.79819,8.04291 -113.49219,31.62891 -18.94,8.06299 -29.69531,14.28906 -29.69531,14.28906 0,0 41.05524,-39.83141 131.28125,-65.71289 z m -13.11328,186.52149 c 1.76645,0 3.51212,0.0981 5.23243,0.28711 1.7203,0.18895 3.41643,0.46925 5.08203,0.83789 1.6656,0.36863 3.30197,0.82425 4.90429,1.36328 1.60233,0.53903 3.17069,1.16118 4.70118,1.86133 1.53048,0.70015 3.02258,1.48003 4.47265,2.33203 1.45007,0.85199 2.85766,1.77692 4.21875,2.77148 2.72218,1.98912 5.25743,4.25411 7.57227,6.75781 2.31484,2.50371 4.40909,5.24539 6.24804,8.18946 1.83896,2.94406 3.42228,6.09018 4.7168,9.40039 0.64726,1.6551 1.22241,3.35126 1.7207,5.08398 0.4983,1.73272 0.92096,3.50168 1.26172,5.30274 0.34077,1.80106 0.60073,3.63401 0.77539,5.49414 0.17467,1.86012 0.26368,3.74829 0.26368,5.6582 0,1.91113 -0.089,3.799 -0.26368,5.66016 -0.17466,1.86116 -0.43462,3.69416 -0.77539,5.49609 -0.34076,1.80193 -0.76342,3.5732 -1.26172,5.30664 -0.49829,1.73344 -1.07344,3.43025 -1.7207,5.08594 -1.29452,3.31137 -2.87784,6.45758 -4.7168,9.40234 -1.83895,2.94476 -3.9332,5.68738 -6.24804,8.19141 -2.31484,2.50403 -4.85009,4.77057 -7.57227,6.75976 -1.36109,0.9946 -2.76868,1.9195 -4.21875,2.77149 -1.45007,0.85199 -2.94217,1.62995 -4.47265,2.33008 -1.53049,0.70012 -3.09885,1.32234 -4.70118,1.86132 -1.60232,0.53899 -3.23869,0.9947 -4.90429,1.36329 -1.6656,0.36858 -3.36173,0.64896 -5.08203,0.83789 -1.72031,0.18892 -3.46598,0.28711 -5.23243,0.28711 -1.76893,0 -3.51578,-0.0982 -5.23828,-0.28711 -1.72249,-0.18893 -3.42039,-0.46931 -5.08789,-0.83789 -1.6675,-0.36859 -3.30424,-0.8243 -4.9082,-1.36329 -1.60396,-0.53898 -3.17516,-1.1612 -4.70703,-1.86132 -1.53188,-0.70013 -3.02533,-1.47809 -4.47656,-2.33008 -1.45124,-0.85199 -2.86061,-1.77689 -4.22266,-2.77149 -2.7241,-1.98919 -5.26011,-4.25573 -7.57617,-6.75976 -2.31607,-2.50403 -4.41232,-5.24665 -6.25196,-8.19141 -1.83963,-2.94476 -3.42393,-6.09097 -4.71875,-9.40234 -0.6474,-1.65569 -1.22232,-3.3525 -1.7207,-5.08594 -0.49838,-1.73344 -0.91896,-3.50471 -1.25976,-5.30664 -0.34081,-1.80193 -0.60072,-3.63493 -0.7754,-5.49609 -0.17467,-1.86116 -0.26367,-3.74904 -0.26367,-5.66016 0,-1.90991 0.089,-3.79808 0.26367,-5.6582 0.17468,-1.86013 0.43459,-3.69308 0.7754,-5.49414 0.3408,-1.80106 0.76138,-3.57002 1.25976,-5.30274 0.49838,-1.73272 1.0733,-3.42888 1.7207,-5.08398 1.29482,-3.31021 2.87912,-6.45633 4.71875,-9.40039 1.83964,-2.94407 3.93589,-5.68575 6.25196,-8.18946 2.31606,-2.5037 4.85207,-4.76869 7.57617,-6.75781 1.36205,-0.99456 2.77142,-1.91949 4.22266,-2.77148 1.45123,-0.852 2.94468,-1.63188 4.47656,-2.33203 1.53187,-0.70015 3.10307,-1.3223 4.70703,-1.86133 1.60396,-0.53903 3.2407,-0.99465 4.9082,-1.36328 1.6675,-0.36864 3.3654,-0.64894 5.08789,-0.83789 1.7225,-0.18896 3.46935,-0.28711 5.23828,-0.28711 z m 182.25,0 c 1.76891,0 3.51777,0.0981 5.24024,0.28711 1.72247,0.18895 3.41846,0.46925 5.08594,0.83789 1.66748,0.36863 3.30621,0.82425 4.91015,1.36328 1.60394,0.53903 3.17322,1.16118 4.70508,1.86133 1.53186,0.70015 3.02534,1.48003 4.47656,2.33203 1.45123,0.85199 2.86062,1.77692 4.22266,2.77148 2.72408,1.98912 5.26012,4.25411 7.57617,6.75781 2.31605,2.50371 4.41233,5.24539 6.25195,8.18946 1.83963,2.94406 3.42394,6.09018 4.71875,9.40039 0.64741,1.6551 1.22233,3.35126 1.72071,5.08398 0.49837,1.73272 0.91896,3.50168 1.25976,5.30274 0.3408,1.80106 0.60072,3.63401 0.77539,5.49414 0.17468,1.86012 0.26563,3.74829 0.26563,5.6582 0,1.91113 -0.0909,3.799 -0.26563,5.66016 -0.17467,1.86116 -0.43459,3.69416 -0.77539,5.49609 -0.3408,1.80193 -0.76139,3.5732 -1.25976,5.30664 -0.49838,1.73344 -1.0733,3.43025 -1.72071,5.08594 -1.29481,3.31137 -2.87912,6.45758 -4.71875,9.40234 -1.83962,2.94476 -3.9359,5.68738 -6.25195,8.19141 -2.31605,2.50403 -4.85209,4.77057 -7.57617,6.75976 -1.36204,0.9946 -2.77143,1.9195 -4.22266,2.77149 -1.45122,0.85199 -2.9447,1.62995 -4.47656,2.33008 -1.53186,0.70012 -3.10114,1.32234 -4.70508,1.86132 -1.60394,0.53899 -3.24267,0.9947 -4.91015,1.36329 -1.66748,0.36858 -3.36347,0.64896 -5.08594,0.83789 -1.72247,0.18892 -3.47133,0.28711 -5.24024,0.28711 -1.76646,0 -3.51209,-0.0982 -5.23242,-0.28711 -1.72033,-0.18893 -3.41446,-0.46931 -5.08008,-0.83789 -1.66562,-0.36859 -3.30195,-0.8243 -4.90429,-1.36329 -1.60235,-0.53898 -3.17068,-1.1612 -4.70117,-1.86132 -1.53051,-0.70013 -3.02453,-1.47809 -4.47461,-2.33008 -1.45009,-0.85199 -2.85765,-1.77689 -4.21875,-2.77149 -2.7222,-1.98919 -5.25741,-4.25573 -7.57227,-6.75976 -2.31486,-2.50403 -4.40908,-5.24665 -6.24805,-8.19141 -1.83896,-2.94476 -3.42227,-6.09097 -4.71679,-9.40234 -0.64727,-1.65569 -1.22241,-3.3525 -1.72071,-5.08594 -0.4983,-1.73344 -0.92095,-3.50471 -1.26172,-5.30664 -0.34076,-1.80193 -0.59876,-3.63493 -0.77343,-5.49609 -0.17467,-1.86116 -0.26563,-3.74904 -0.26563,-5.66016 0,-1.90991 0.091,-3.79808 0.26563,-5.6582 0.17467,-1.86013 0.43267,-3.69308 0.77343,-5.49414 0.34077,-1.80106 0.76342,-3.57002 1.26172,-5.30274 0.4983,-1.73272 1.07344,-3.42888 1.72071,-5.08398 1.29452,-3.31021 2.87783,-6.45633 4.71679,-9.40039 1.83897,-2.94407 3.93319,-5.68575 6.24805,-8.18946 2.31486,-2.5037 4.85007,-4.76869 7.57227,-6.75781 1.3611,-0.99456 2.76866,-1.91949 4.21875,-2.77148 1.45008,-0.852 2.94411,-1.63188 4.47461,-2.33203 1.53048,-0.70015 3.09882,-1.3223 4.70117,-1.86133 1.60234,-0.53903 3.23867,-0.99465 4.90429,-1.36328 1.66562,-0.36864 3.35975,-0.64894 5.08008,-0.83789 1.72033,-0.18896 3.46596,-0.28711 5.23242,-0.28711 z" />
</g>
</svg>
